# xmcd
#
# Track frame offsets:
#	150
#	18482
#	38787
#	60420
#	79717
#	99605
#	116377
#	134442
#	148060
#	170445
#
# Disc length: 2536 seconds
#
# Revision: 3
# Processed by: cddbd v1.5.2PL0 Copyright (c) Steve Scherf et al.
# Submitted via: EasyCDDAExtractor 2010.6.0.0
#
DISCID=8009e60a
DTITLE=Various Artist - The Best Of Bill Medley
DYEAR=1988
DGENRE=Pop
TTITLE0=Bill Medley - I'm Gonna Be Strong
TTITLE1=Bill Medley - He Ain't Heavy... He's My Brother
TTITLE2=Bill Medley and Jennifer Warnes - (I've Had) The Time Of My Life
TTITLE3=Bill Medley - Brown Eyed Woman
TTITLE4=Bill Medley - You've Lost That Loving Feelin'
TTITLE5=Bill Medley - American Rock And Roll
TTITLE6=Bill Medley - Loving On Borrowed Time
TTITLE7=Bill Medley - Little Latin Lupe Lu
TTITLE8=Bill Medley - I Just Want To Make Love To You
TTITLE9=Bill Medley - Georgia On My Mind
EXTD=
EXTT0=
EXTT1=
EXTT2=
EXTT3=
EXTT4=
EXTT5=
EXTT6=
EXTT7=
EXTT8=
EXTT9=
PLAYORDER=
